<svg width="52" height="20" viewBox="0 0 52 20" fill="none" xmlns="http://www.w3.org/2000/svg">
<path d="M25.1753 16.6834C29.3221 16.6834 32.6837 13.3218 32.6837 9.17502C32.6837 5.02828 29.3221 1.66669 25.1753 1.66669C21.0286 1.66669 17.667 5.02828 17.667 9.17502C17.667 13.3218 21.0286 16.6834 25.1753 16.6834Z" fill="#596780"/>
<path d="M34.3247 15.7917C34.0497 15.2833 33.4664 15 32.6831 15C32.0914 15 31.5831 15.2417 31.2831 15.6583C30.9831 16.075 30.9164 16.6333 31.0997 17.1917C31.4581 18.275 32.0831 18.5167 32.4247 18.5583C32.4747 18.5667 32.5247 18.5667 32.5831 18.5667C32.9497 18.5667 33.5164 18.4083 34.0664 17.5833C34.5081 16.9417 34.5914 16.3 34.3247 15.7917Z" fill="#596780"/>
</svg>
